<svg id="Calque_1" data-name="Calque 1" xmlns="http://www.w3.org/2000/svg" viewBox="0 0 595.28 841.89"><defs><style>.cls-1,.cls-2{fill:none;stroke-miterlimit:10;}.cls-1{stroke:#6e7abb;stroke-width:13px;}.cls-2{stroke:#2a3385;stroke-width:19px;}</style></defs><title>DNA</title><line class="cls-1" x1="231.79" y1="231.86" x2="346.15" y2="231.86"/><line class="cls-1" x1="246.78" y1="443.23" x2="336.6" y2="443.23"/><line class="cls-1" x1="231.79" y1="400.81" x2="351.59" y2="400.81"/><line class="cls-1" x1="236.36" y1="359.58" x2="340.5" y2="359.58"/><line class="cls-1" x1="249.61" y1="274.45" x2="329.81" y2="274.45"/><line class="cls-1" x1="235.7" y1="569.87" x2="355.49" y2="569.87"/><line class="cls-1" x1="242.93" y1="527.2" x2="332.75" y2="527.2"/><path class="cls-2" d="M231.89,576.68C231.44,521,274.51,500,274.51,500l34-25.93c50.22-43.42,46.82-77.1,46.82-77.1s8.25-48.11-57.79-85.23-55.95-84.19-55.95-84.19"/><path class="cls-2" d="M347,576.37c.45-55.67-42.62-76.67-42.62-76.67l-34-25.93c-50.22-43.42-46.82-77.1-46.82-77.1s-8.25-48.11,57.79-85.23,55.95-84.19,55.95-84.19"/></svg>